# xmcd
#
# Track frame offsets:
#	150
#	18442
#	37739
#	48119
#	63824
#	86747
#	105084
#	126467
#	139073
#	148542
#
# Disc length: 2128 seconds
#
# Revision: 1
# Processed by: cddbd v1.5.2PL0 Copyright (c) Steve Scherf et al.
# Submitted via: audiograbber 1.83.01
#
DISCID=79084e0a
DTITLE=Hank Williams Jr. - Montana Cafe
DYEAR=1986
DGENRE=Country
TTITLE0=Country State of Mind
TTITLE1=Montana Cafe
TTITLE2=My Girl Don't Like My Cowboy Hat
TTITLE3=When Something is Good
TTITLE4=Medley -Harvest Moon,
TTITLE5=You Can't Judge a Book
TTITLE6=My Name is Bocephus
TTITLE7=Loving Instructor
TTITLE8=Fat Friends
TTITLE9=Mind Your Own Business
EXTD=
EXTT0=
EXTT1=
EXTT2=
EXTT3=
EXTT4=
EXTT5=
EXTT6=
EXTT7=
EXTT8=
EXTT9=
PLAYORDER=
